# xmcd
# 
# Track frame offsets:
#     150
#     19297
#     36040
#     52472
#     66512
#     89607
#     109680
#     126825
#     143712
#     161142
#     177012
#     195687
#     210060
#     224557
#     237145
#     252965
#     266040
#     280882
#     295487
#     312217
# 
# Disc length: 4475
# 
# Revision: 6
# Processed by: cddbd v1.5.2PL0 Copyright (c) Steve Scherf et al.
# Submitted via: fre:ac v1.0.27
# 
DISCID=3b117914
DTITLE=Alice Cooper - The Life And Crimes Of Alice Cooper
DYEAR=1999
DGENRE=Rock
TTITLE0=Hello Hooray
TTITLE1=Elected (Single Version)
TTITLE2=Billion Dollar Babies
TTITLE3=No More Mr Nice Guy
TTITLE4=I Love The Dead
TTITLE5=Slick Black Limousine
TTITLE6=Respect For The Sleepers (DEMO)
TTITLE7=Muscle Of Love
TTITLE8=Teenage Lament '74
TTITLE9=Working Up A Sweat
TTITLE10=Man With The Golden Gun
TTITLE11=I'm Flash
TTITLE12=Space Pirates
TTITLE13=Welcome To My Nightmare (Single Version)
TTITLE14=Only Women Bleed (Single Version)
TTITLE15=Cold Ethyl
TTITLE16=Department Of Youth
TTITLE17=Escape
TTITLE18=I Never Cry
TTITLE19=Go To Hell
EXTD=YEAR: 1999
EXTT0=
EXTT1=
EXTT2=
EXTT3=
EXTT4=
EXTT5=
EXTT6=
EXTT7=
EXTT8=
EXTT9=
EXTT10=
EXTT11=
EXTT12=
EXTT13=
EXTT14=
EXTT15=
EXTT16=
EXTT17=
EXTT18=
EXTT19=
PLAYORDER=
